<svg width="152" height="32" viewBox="0 0 152 29" fill="none" xmlns="http://www.w3.org/2000/svg">
<path fill-rule="evenodd" clip-rule="evenodd" d="M3.0886 7.25023C7.20553 -5.24521e-06 7.20553 0 15.4403 0C23.6751 0 23.6751 -5.24521e-06 27.7925 7.25023C31.9099 14.5005 31.9094 14.5 27.7925 21.7498C23.6756 28.9995 23.6751 29 15.4403 29C7.20553 29 7.20553 29 3.0886 21.7498C-1.02833 14.4995 -1.02879 14.5 3.0886 7.25023Z" fill="url(#paint0_linear_368_263)"/>
<path fill-rule="evenodd" clip-rule="evenodd" d="M77.0335 21.7737H76.1701C74.8355 21.7737 73.5005 21.7737 72.4477 21.3825C71.9445 21.2017 71.4862 20.9114 71.1047 20.532C70.7232 20.1525 70.4278 19.693 70.2391 19.1855C69.8538 18.1631 69.8543 16.9026 69.8561 14.6634C69.8561 13.897 69.8561 13.0159 69.8589 12.0597H65.1151C62.6141 12.0597 62.141 12.0597 61.7387 12.2298C61.3313 12.4047 61.0078 12.7352 60.8378 13.1503C60.7004 13.5749 60.6442 14.0224 60.6725 14.4685C60.6725 14.8954 60.6725 15.2669 60.6725 15.6426C60.6725 16.0183 60.6725 16.3889 60.6725 16.8167C60.6443 17.2628 60.7004 17.7103 60.8378 18.135C61.0079 18.5498 61.3314 18.8802 61.7387 19.055C62.141 19.225 62.6141 19.225 63.7615 19.225H68.5548V21.7751H64.3196C62.9296 21.7751 61.5728 21.7751 60.5089 21.3834C60.0038 21.2043 59.5435 20.9148 59.1603 20.5352C58.7772 20.1556 58.4807 19.6952 58.2916 19.1865C57.9063 18.1646 57.9063 16.904 57.9063 15.6431C57.9063 14.3821 57.9063 13.1216 58.2916 12.0992C58.4746 11.6084 58.7539 11.1606 59.1124 10.7829C59.471 10.4053 59.9013 10.1056 60.3773 9.90225C61.3072 9.51057 62.3969 9.51058 65.14 9.51058H69.864C69.864 8.36983 69.8672 7.17978 69.869 5.98831H72.6158V9.51058H76.6768V12.0607H72.6158V15.2073C72.6158 17.2431 72.6158 17.724 72.783 18.1345C72.955 18.5498 73.28 18.8801 73.6885 19.055C74.1553 19.2051 74.6461 19.2628 75.1344 19.225H77.0353V21.7751L77.0335 21.7737ZM116.193 17.5282C116.082 17.8352 116.082 18.1722 116.193 18.4792C116.245 18.6205 116.326 18.7494 116.429 18.858C116.532 18.9667 116.656 19.0529 116.793 19.1113C117.06 19.2236 117.374 19.2236 118.52 19.2236H122.174V16.7838H118.57C117.374 16.7838 117.061 16.7838 116.794 16.8965C116.657 16.9548 116.533 17.0409 116.43 17.1495C116.326 17.2581 116.246 17.3869 116.193 17.5282H116.193ZM81.7773 16.7171C81.7354 17.2398 81.7921 17.7659 81.9445 18.2669C82.1165 18.6822 82.4414 19.0126 82.8499 19.1874C83.2692 19.3287 83.7113 19.3866 84.1522 19.3579H86.5465C86.9796 19.3871 87.4141 19.3292 87.8252 19.1874C88.2298 19.0097 88.5512 18.6799 88.7223 18.2669C88.8746 17.7659 88.9314 17.2398 88.8895 16.7171V14.5662C88.9313 14.0435 88.8746 13.5175 88.7223 13.0164C88.5511 12.6036 88.2297 12.274 87.8252 12.0964C87.414 11.9551 86.9795 11.8976 86.5465 11.9273C86.121 11.9273 85.7274 11.9273 85.3339 11.9273H84.1522C83.7114 11.8984 83.2692 11.9562 82.8499 12.0973C82.4414 12.2722 82.1165 12.6025 81.9445 13.0178C81.7922 13.5189 81.7355 14.0449 81.7773 14.5676V16.7185V16.7171ZM50.7525 15.3383L47.6214 8.22096H47.2661L44.1304 15.3383H50.7525ZM79.4024 19.2964C79.0171 18.2519 79.0176 16.9482 79.0176 15.6417C79.0176 14.3351 79.0176 13.0314 79.4028 11.9874C79.5874 11.475 79.881 11.0104 80.2627 10.6268C80.6444 10.2432 81.1048 9.95006 81.611 9.7684C82.6638 9.37672 83.9988 9.37626 85.3339 9.37626C86.6962 9.37626 88.0594 9.37625 89.1108 9.7684C89.6128 9.94904 90.0683 10.2423 90.4436 10.6265C90.8188 11.0107 91.1041 11.4758 91.2783 11.9874C91.6478 13.0319 91.6478 14.3356 91.6478 15.6421C91.6478 16.9487 91.6478 18.2524 91.2626 19.2964C91.0779 19.8087 90.7842 20.2733 90.4025 20.6568C90.0208 21.0404 89.5605 21.3336 89.0544 21.5154C88.0016 21.9071 86.6666 21.9066 85.332 21.9066C83.9974 21.9066 82.6619 21.9066 81.6091 21.5154C81.1031 21.3334 80.6428 21.0402 80.2611 20.6566C79.8793 20.2731 79.5855 19.8086 79.4005 19.2964H79.4024ZM110.034 21.7737H107.25V16.0338C107.25 14.3812 107.25 13.1221 107.635 12.0983C107.818 11.6074 108.097 11.1596 108.456 10.7819C108.814 10.4042 109.245 10.1046 109.721 9.90131C110.645 9.58459 111.62 9.4516 112.593 9.50963H119.14C120.468 9.50963 121.558 9.50964 122.488 9.90131C122.964 10.1046 123.394 10.4042 123.753 10.7819C124.112 11.1596 124.391 11.6074 124.574 12.0983C124.959 13.1202 124.959 14.3812 124.959 16.0338V21.7737H118.541C117.531 21.8434 116.517 21.731 115.545 21.4417C115.116 21.28 114.724 21.0308 114.393 20.7095C114.063 20.3881 113.801 20.0013 113.622 19.573C113.267 18.6622 113.269 17.6477 113.628 16.7383C113.809 16.3058 114.074 15.9148 114.406 15.5886C114.739 15.2624 115.133 15.0076 115.565 14.8395C116.424 14.5 117.422 14.5 118.838 14.5H122.173V14.4685C122.201 14.0226 122.145 13.5753 122.01 13.1503C121.844 12.7363 121.525 12.4055 121.12 12.2298C120.721 12.0597 120.248 12.0597 119.161 12.0597H112.568C112.067 12.0179 111.563 12.0775 111.085 12.2349C110.679 12.4194 110.361 12.7574 110.197 13.177C110.061 13.6037 110.004 14.0523 110.03 14.5C110.03 14.9227 110.03 15.2819 110.03 16.4837C110.03 17.6855 110.03 19.7298 110.03 21.7737H110.034ZM127.865 19.1907C127.48 18.1688 127.48 16.9078 127.48 15.6473C127.48 14.3868 127.48 13.1258 127.865 12.1039C128.049 11.6131 128.328 11.1652 128.686 10.7874C129.045 10.4097 129.475 10.11 129.951 9.90647C130.881 9.5148 131.971 9.5148 133.616 9.51433L139.665 9.51151L143.413 17.5892L146.943 9.51151H150.002C147.526 15.1856 145.049 20.8595 142.573 26.533H139.503C140.318 24.6679 141.133 22.8031 141.949 20.9387C140.565 17.98 139.182 15.0213 137.798 12.0626H133.595C132.191 12.0626 131.718 12.0626 131.315 12.2331C130.908 12.4082 130.585 12.7387 130.415 13.1535C130.278 13.5782 130.221 14.0257 130.249 14.4718C130.249 14.8987 130.249 15.2702 130.249 15.6529C130.249 16.0357 130.243 16.4208 130.243 16.8482C130.215 17.287 130.273 17.7272 130.412 18.1434C130.586 18.5547 130.911 18.8812 131.317 19.0545C131.72 19.2236 132.194 19.2231 133.342 19.2231H138.127V21.7732L133.894 21.7761C132.504 21.7761 131.148 21.7761 130.084 21.3853C129.579 21.2063 129.118 20.9167 128.735 20.5372C128.352 20.1576 128.055 19.6971 127.866 19.1884L127.865 19.1907ZM94.0403 15.644C94.0403 14.383 94.0403 13.1225 94.4256 12.1006C94.6086 11.6097 94.888 11.1618 95.2466 10.784C95.6052 10.4062 96.0357 10.1066 96.5117 9.90319C97.4417 9.51152 98.5314 9.51151 99.921 9.51151H104.691V12.0616H99.896C98.7481 12.0616 98.275 12.0616 97.8727 12.2312C97.4654 12.4059 97.1419 12.7363 96.9718 13.1512C96.8343 13.5773 96.778 14.0261 96.806 14.4737C96.806 14.9029 96.806 15.28 96.806 15.6539V16.8219C96.7785 17.267 96.835 17.7133 96.9723 18.1368C97.1428 18.5513 97.4661 18.8814 97.8731 19.0564C98.2755 19.2264 98.7485 19.2264 99.8965 19.2264H104.69V21.7765H100.454C99.0645 21.7765 97.7073 21.7765 96.6439 21.3848C96.1383 21.2061 95.6775 20.9167 95.2939 20.5371C94.9104 20.1574 94.6135 19.6969 94.4242 19.1879C94.0389 18.166 94.0389 16.905 94.0389 15.6445L94.0403 15.644ZM49.3029 4.77618L56.7777 21.777H53.5843L51.9281 18.0129H42.9515L41.2931 21.777L38.0774 21.8268L45.5888 4.77899L49.3029 4.77618Z" fill="white"/>
<defs>
<linearGradient id="paint0_linear_368_263" x1="24" y1="29.5" x2="8.5" y2="0.5" gradientUnits="userSpaceOnUse">
<stop stop-color="#892DFF"/>
<stop offset="1" stop-color="#52E0FF"/>
</linearGradient>
</defs>
</svg>
