<svg width="152" height="32" viewBox="0 0 151 30" fill="none" xmlns="http://www.w3.org/2000/svg">
<path fill-rule="evenodd" clip-rule="evenodd" d="M3.0886 7.75023C7.20553 0.499995 7.20553 0.5 15.4403 0.5C23.6751 0.5 23.6751 0.499995 27.7925 7.75023C31.9099 15.0005 31.9094 15 27.7925 22.2498C23.6756 29.4995 23.6751 29.5 15.4403 29.5C7.20553 29.5 7.20553 29.5 3.0886 22.2498C-1.02833 14.9995 -1.02879 15 3.0886 7.75023Z" fill="url(#paint0_linear_30_827)"/>
<path fill-rule="evenodd" clip-rule="evenodd" d="M77.0335 22.2738H76.1701C74.8355 22.2738 73.5005 22.2738 72.4477 21.8826C71.9445 21.7018 71.4862 21.4115 71.1047 21.0321C70.7232 20.6526 70.4278 20.1931 70.2391 19.6856C69.8538 18.6632 69.8543 17.4027 69.8561 15.1635C69.8561 14.397 69.8561 13.516 69.8589 12.5598H65.1151C62.6141 12.5598 62.141 12.5598 61.7387 12.7298C61.3313 12.9047 61.0078 13.2353 60.8378 13.6503C60.7004 14.075 60.6442 14.5225 60.6725 14.9686C60.6725 15.3955 60.6725 15.767 60.6725 16.1427C60.6725 16.5184 60.6725 16.8889 60.6725 17.3168C60.6443 17.7629 60.7004 18.2104 60.8378 18.635C61.0079 19.0499 61.3314 19.3803 61.7387 19.555C62.141 19.725 62.6141 19.725 63.7615 19.725H68.5548V22.2752H64.3196C62.9296 22.2752 61.5728 22.2752 60.5089 21.8835C60.0038 21.7044 59.5435 21.4149 59.1603 21.0353C58.7772 20.6557 58.4807 20.1953 58.2916 19.6865C57.9063 18.6646 57.9063 17.4041 57.9063 16.1431C57.9063 14.8822 57.9063 13.6217 58.2916 12.5993C58.4746 12.1085 58.7539 11.6607 59.1124 11.283C59.471 10.9053 59.9013 10.6057 60.3773 10.4023C61.3072 10.0106 62.3969 10.0106 65.14 10.0106H69.864C69.864 8.86989 69.8672 7.67984 69.869 6.48837H72.6158V10.0106H76.6768V12.5608H72.6158V15.7073C72.6158 17.7432 72.6158 18.2241 72.783 18.6346C72.955 19.0498 73.28 19.3802 73.6885 19.555C74.1553 19.7052 74.6461 19.7629 75.1344 19.725H77.0353V22.2752L77.0335 22.2738ZM116.193 18.0283C116.082 18.3352 116.082 18.6723 116.193 18.9793C116.245 19.1205 116.326 19.2494 116.429 19.3581C116.532 19.4668 116.656 19.553 116.793 19.6114C117.06 19.7236 117.374 19.7236 118.52 19.7236H122.174V17.2839H118.57C117.374 17.2839 117.061 17.2839 116.794 17.3966C116.657 17.4549 116.533 17.5409 116.43 17.6495C116.326 17.7581 116.246 17.887 116.193 18.0283H116.193ZM81.7773 17.2172C81.7354 17.7399 81.7921 18.2659 81.9445 18.767C82.1165 19.1823 82.4414 19.5126 82.8499 19.6875C83.2692 19.8288 83.7113 19.8867 84.1522 19.858H86.5465C86.9796 19.8872 87.4141 19.8292 87.8252 19.6875C88.2298 19.5097 88.5512 19.1799 88.7223 18.767C88.8746 18.2659 88.9314 17.7399 88.8895 17.2172V15.0663C88.9313 14.5435 88.8746 14.0175 88.7223 13.5165C88.5511 13.1037 88.2297 12.7741 87.8252 12.5964C87.414 12.4551 86.9795 12.3977 86.5465 12.4274C86.121 12.4274 85.7274 12.4274 85.3339 12.4274H84.1522C83.7114 12.3985 83.2692 12.4562 82.8499 12.5974C82.4414 12.7722 82.1165 13.1026 81.9445 13.5179C81.7922 14.0189 81.7355 14.545 81.7773 15.0677V17.2186V17.2172ZM50.7525 15.8383L47.6214 8.72102H47.2661L44.1304 15.8383H50.7525ZM79.4024 19.7964C79.0171 18.752 79.0176 17.4483 79.0176 16.1417C79.0176 14.8352 79.0176 13.5315 79.4028 12.4875C79.5874 11.9751 79.881 11.5105 80.2627 11.1269C80.6444 10.7432 81.1048 10.4501 81.611 10.2685C82.6638 9.87678 83.9988 9.87632 85.3339 9.87632C86.6962 9.87632 88.0594 9.87631 89.1108 10.2685C89.6128 10.4491 90.0683 10.7424 90.4436 11.1266C90.8188 11.5107 91.1041 11.9759 91.2783 12.4875C91.6478 13.532 91.6478 14.8357 91.6478 16.1422C91.6478 17.4487 91.6478 18.7524 91.2626 19.7964C91.0779 20.3088 90.7842 20.7733 90.4025 21.1569C90.0208 21.5405 89.5605 21.8337 89.0544 22.0155C88.0016 22.4071 86.6666 22.4067 85.332 22.4067C83.9974 22.4067 82.6619 22.4067 81.6091 22.0155C81.1031 21.8335 80.6428 21.5402 80.2611 21.1567C79.8793 20.7731 79.5855 20.3087 79.4005 19.7964H79.4024ZM110.034 22.2738H107.25V16.5339C107.25 14.8812 107.25 13.6221 107.635 12.5983C107.818 12.1075 108.097 11.6596 108.456 11.282C108.814 10.9043 109.245 10.6047 109.721 10.4014C110.645 10.0846 111.62 9.95166 112.593 10.0097H119.14C120.468 10.0097 121.558 10.0097 122.488 10.4014C122.964 10.6047 123.394 10.9043 123.753 11.282C124.112 11.6596 124.391 12.1075 124.574 12.5983C124.959 13.6202 124.959 14.8812 124.959 16.5339V22.2738H118.541C117.531 22.3435 116.517 22.2311 115.545 21.9417C115.116 21.7801 114.724 21.5309 114.393 21.2095C114.063 20.8882 113.801 20.5014 113.622 20.073C113.267 19.1623 113.269 18.1477 113.628 17.2383C113.809 16.8059 114.074 16.4149 114.406 16.0887C114.739 15.7625 115.133 15.5077 115.565 15.3396C116.424 15 117.422 15 118.838 15H122.173V14.9686C122.201 14.5226 122.145 14.0754 122.01 13.6503C121.844 13.2363 121.525 12.9055 121.12 12.7298C120.721 12.5598 120.248 12.5598 119.161 12.5598H112.568C112.067 12.518 111.563 12.5775 111.085 12.735C110.679 12.9194 110.361 13.2574 110.197 13.6771C110.061 14.1037 110.004 14.5524 110.03 15C110.03 15.4227 110.03 15.782 110.03 16.9838C110.03 18.1856 110.03 20.2299 110.03 22.2738H110.034ZM127.865 19.6908C127.48 18.6688 127.48 17.4079 127.48 16.1474C127.48 14.8869 127.48 13.6259 127.865 12.604C128.049 12.1131 128.328 11.6652 128.686 11.2875C129.045 10.9097 129.475 10.61 129.951 10.4065C130.881 10.0149 131.971 10.0149 133.616 10.0144L139.665 10.0116L143.413 18.0893L146.943 10.0116H150.002C147.526 15.6857 145.049 21.3595 142.573 27.0331H139.503C140.318 25.168 141.133 23.3032 141.949 21.4387C140.565 18.48 139.182 15.5213 137.798 12.5626H133.595C132.191 12.5626 131.718 12.5626 131.315 12.7331C130.908 12.9082 130.585 13.2387 130.415 13.6536C130.278 14.0783 130.221 14.5257 130.249 14.9719C130.249 15.3988 130.249 15.7702 130.249 16.153C130.249 16.5357 130.243 16.9209 130.243 17.3482C130.215 17.7871 130.273 18.2272 130.412 18.6435C130.586 19.0547 130.911 19.3813 131.317 19.5546C131.72 19.7236 132.194 19.7232 133.342 19.7232H138.127V22.2733L133.894 22.2761C132.504 22.2761 131.148 22.2761 130.084 21.8854C129.579 21.7063 129.118 21.4168 128.735 21.0372C128.352 20.6576 128.055 20.1972 127.866 19.6884L127.865 19.6908ZM94.0403 16.1441C94.0403 14.8831 94.0403 13.6226 94.4256 12.6007C94.6086 12.1098 94.888 11.6618 95.2466 11.2841C95.6052 10.9063 96.0357 10.6066 96.5117 10.4033C97.4417 10.0116 98.5314 10.0116 99.921 10.0116H104.691V12.5617H99.896C98.7481 12.5617 98.275 12.5617 97.8727 12.7312C97.4654 12.906 97.1419 13.2364 96.9718 13.6512C96.8343 14.0773 96.778 14.5262 96.806 14.9737C96.806 15.403 96.806 15.7801 96.806 16.1539V17.3219C96.7785 17.767 96.835 18.2133 96.9723 18.6369C97.1428 19.0514 97.4661 19.3815 97.8731 19.5564C98.2755 19.7265 98.7485 19.7265 99.8965 19.7265H104.69V22.2766H100.454C99.0645 22.2766 97.7073 22.2766 96.6439 21.8849C96.1383 21.7061 95.6775 21.4167 95.2939 21.0371C94.9104 20.6575 94.6135 20.197 94.4242 19.6879C94.0389 18.666 94.0389 17.4051 94.0389 16.1446L94.0403 16.1441ZM49.3029 5.27625L56.7777 22.277H53.5843L51.9281 18.5129H42.9515L41.2931 22.277L38.0774 22.3268L45.5888 5.27905L49.3029 5.27625Z" fill="black"/>
<defs>
<linearGradient id="paint0_linear_30_827" x1="24" y1="30" x2="8.5" y2="1" gradientUnits="userSpaceOnUse">
<stop stop-color="#892DFF"/>
<stop offset="1" stop-color="#52E0FF"/>
</linearGradient>
</defs>
</svg>
